<svg width="600" height="520" viewBox="0 0 600 520" fill="none" xmlns="http://www.w3.org/2000/svg">
<path d="M0 408.917H481.132V470.236H0V408.917Z" fill="#0094FF" fill-opacity="0.5"/>
<path d="M600 439.577L481.132 519.231V359.922L600 439.577Z" fill="#0094FF" fill-opacity="0.5"/>
<path d="M126.168 111.644C158.72 119.174 151.775 79.3298 171.414 66.269C212.761 17.0697 292.756 -3.77815 357.737 19.754C424.719 41.9176 466.891 107.992 455.615 169.39C492.64 157.98 543.817 157.16 568.015 188.955C608.357 227.568 579.693 294.945 525.122 309.735C502.254 316.04 478.234 310.591 454.72 312.137C340.297 312.033 225.843 312.346 111.439 311.977C30.2077 306.525 -15.0769 213.76 28.3642 156.03C42.8639 135.304 68.9489 124.111 93.6902 115.434C104.516 113.937 115.342 112.442 126.167 110.945M126.167 161.222C94.5276 159.387 65.9932 184.603 71.2734 212.554C72.5834 242.929 106.938 270.308 142.069 261.858C262.88 261.813 383.693 261.949 504.502 261.793C543.605 259.403 530.337 201.286 492.893 211.528C461.919 211.528 430.944 211.528 399.97 211.528C397.863 171.419 409.018 125.421 377.306 91.7017C334.397 46.7704 238.052 52.4888 208.986 107.341C194.114 121.988 206.282 154.37 191.858 161.223C169.961 161.223 148.064 161.222 126.167 161.222Z" fill="#0094FF"/>
<path fill-rule="evenodd" clip-rule="evenodd" d="M126.298 111.675C146.056 116.183 151.2 103.158 156.654 89.3501C160.143 80.5149 163.761 71.3584 171.414 66.269C212.761 17.0697 292.756 -3.77815 357.737 19.754C420.721 40.5946 461.766 100.261 457.067 158.356C456.769 162.044 456.288 165.725 455.615 169.39C459.532 168.183 463.606 167.095 467.791 166.151C503.165 158.172 546.377 160.524 568.015 188.955C608.357 227.568 579.693 294.945 525.122 309.735C510.793 313.686 496.009 313.022 481.183 312.355C472.348 311.958 463.5 311.56 454.72 312.137C411.281 312.098 367.836 312.119 324.392 312.139C253.401 312.173 182.411 312.205 111.439 311.977C30.2077 306.525 -15.0769 213.76 28.3642 156.03C42.8639 135.304 68.9489 124.111 93.6902 115.434L126.167 110.945L126.168 111.644C126.212 111.654 126.254 111.665 126.298 111.675ZM126.245 111.385L126.167 110.945L124.361 101L90.5958 105.667L89.386 106.091C64.6498 114.766 35.2891 126.925 18.6144 150.641C-5.61035 182.955 -4.65057 224.266 12.6271 257.743C29.9593 291.327 64.7477 318.943 110.552 322.017L110.973 322.045L111.394 322.047C182.383 322.276 253.426 322.242 324.44 322.209C367.879 322.188 411.308 322.168 454.707 322.207L455.147 322.208L455.586 322.179C463.575 321.653 471.387 322.004 479.988 322.389C483.117 322.53 486.351 322.674 489.735 322.784C501.833 323.174 515.183 323.031 528.568 319.345C560.009 310.814 583.215 287.47 593.11 261.451C602.962 235.547 600.203 205.286 577.13 182.742C562.695 164.233 540.654 155.569 518.126 152.987C501.675 151.102 484.55 152.381 468.808 155.567C471.965 94.3774 428.561 32.5003 361.993 10.3943C292.429 -14.7142 207.61 7.24736 163.015 59.2455C156.527 64.0477 152.671 70.4593 149.993 76.0363C148.525 79.0931 147.267 82.2239 146.143 85.0635C146.008 85.4035 145.876 85.7386 145.745 86.0691C144.746 88.5979 143.852 90.8612 142.89 93.0017C140.598 98.1005 138.722 100.531 137.112 101.627C136.37 102.132 134.65 103.19 129.123 101.911L126.245 111.385Z" fill="#0094FF"/>
</svg>
