<svg width="180" height="35" viewBox="0 0 180 35" fill="none" xmlns="http://www.w3.org/2000/svg">
<path fill-rule="evenodd" clip-rule="evenodd" d="M0 9.79782C0 4.38664 4.38663 0 9.79782 0H170.202C175.613 0 180 4.38663 180 9.79782V24.3546C180 29.7658 175.613 34.1524 170.202 34.1524H9.79782C4.38663 34.1524 0 29.7658 0 24.3546V9.79782ZM43.1104 10.9176V27.098H51.3966V12.3733L57.5552 23.9627C58.7869 26.3142 61.3437 27.4526 65.2255 27.3779C67.2411 27.3406 68.9207 26.9673 70.2644 26.2582C71.6081 25.549 72.2799 24.6719 72.2799 23.6268V6.94246H64.0498V21.6672L57.9471 10.0218C57.126 8.4168 55.521 7.39036 53.1322 6.94246C52.1617 6.79316 51.21 6.71851 50.2768 6.71851C48.2239 6.71851 46.507 7.11042 45.126 7.89425C43.7823 8.67807 43.1104 9.68585 43.1104 10.9176ZM94.1282 6.94246H77.164V11.2535H92.6725C93.9789 11.3655 94.6321 11.7761 94.6321 12.4852V13.9969C94.6321 14.7434 93.9602 15.1166 92.6165 15.1166L85.1702 15.1726C82.8187 15.1726 80.8965 15.5645 79.4035 16.3484C77.9105 17.1322 77.164 18.1773 77.164 19.4837V27.098H103.31V22.731H85.842V20.7714C85.842 20.0622 86.4952 19.6703 87.8016 19.5956H95.024C98.01 19.5956 100.25 19.0731 101.743 18.028C102.75 17.3188 103.254 16.6096 103.254 15.9005L103.31 11.3095C103.347 8.39813 100.287 6.94246 94.1282 6.94246ZM104.957 27.098L118.17 16.7963L105.629 6.94246H115.931L122.649 12.5972L129.816 6.94246H140.118L127.576 16.7963L140.789 27.098H130.488L122.593 20.8834L115.259 27.098H104.957ZM30.064 29.6734L35.8318 25.8084L30.064 21.9433V24.3207H6.71826V27.296H30.064V29.6734ZM14.3198 8.81448C14.1638 9.20963 14.0129 9.59156 13.7187 9.79354C14.0129 9.59156 14.1637 9.20968 14.3197 8.81458L14.3197 8.81457L14.3197 8.81453L14.3198 8.8145C14.4476 8.49092 14.5789 8.15845 14.7953 7.90867C14.5789 8.15842 14.4476 8.49085 14.3199 8.81441L14.3198 8.81448ZM30.0673 19.6353C30.292 19.6454 30.5165 19.6555 30.7402 19.6587C30.5163 19.6555 30.2916 19.6454 30.0667 19.6353L30.066 19.6352C29.8621 19.6261 29.658 19.6169 29.4543 19.6128C29.6583 19.6169 29.8627 19.6261 30.0668 19.6353L30.0673 19.6353ZM22.4588 19.6248C21.0377 19.6255 19.6167 19.6261 18.1956 19.6259C19.596 19.6261 20.9964 19.6255 22.3969 19.6248L22.4059 19.6248L22.4588 19.6248ZM22.5159 19.6248H22.5116L22.4591 19.6248C24.5179 19.6238 26.5767 19.6228 28.6353 19.6246C26.5957 19.6228 24.5557 19.6238 22.5159 19.6248ZM12.7528 9.3798L12.8405 9.86236L12.8442 9.88369L12.9839 9.42399C13.252 9.48603 13.3355 9.43472 13.3715 9.41021C13.4497 9.35704 13.5407 9.23909 13.6519 8.99168C13.6985 8.88785 13.7419 8.77805 13.7904 8.65539L13.7904 8.65531L13.7904 8.6553L13.8097 8.60651C13.8643 8.46872 13.9253 8.3168 13.9966 8.16848C14.1265 7.89787 14.3136 7.58676 14.6284 7.35375C16.7923 4.83067 20.9079 3.76503 24.2833 4.98336C27.5134 6.056 29.6195 9.05844 29.4663 12.0275C30.2301 11.8729 31.0611 11.8109 31.8593 11.9023C32.9524 12.0276 34.0219 12.448 34.7223 13.3461C35.8419 14.44 35.9758 15.9083 35.4977 17.1653C35.0176 18.4278 33.8916 19.5605 32.366 19.9744C31.7165 20.1533 31.0687 20.1602 30.4817 20.1413C30.3177 20.136 30.1611 20.129 30.0095 20.1222L30.0088 20.1222C29.5914 20.1034 29.2124 20.0864 28.8247 20.1119L28.8034 20.1133L28.782 20.1133C26.6786 20.1114 24.5738 20.1124 22.4684 20.1134H22.4679H22.4674H22.4669H22.4663H22.4658H22.4612C19.0154 20.115 15.5682 20.1166 12.1236 20.1055L12.1032 20.1055L12.0828 20.1041C9.86023 19.9549 8.17221 18.6149 7.33121 16.9854C6.49285 15.361 6.44628 13.3564 7.62173 11.7885C8.43083 10.6377 9.85548 10.0477 11.0557 9.6268L11.1144 9.60622L12.7528 9.3798ZM12.8405 12.3019C11.3052 12.2128 9.92066 13.4364 10.1769 14.7927C10.2404 16.2665 11.9074 17.5951 13.612 17.185C15.8556 17.1842 18.0991 17.1846 20.3427 17.1851C23.9612 17.1858 27.5798 17.1865 31.1982 17.1819C33.0956 17.0659 32.4518 14.2459 30.6349 14.7429H26.1261C26.102 14.2844 26.1136 13.8101 26.1253 13.3314C26.1634 11.7782 26.2026 10.1793 25.0264 8.92861C22.9443 6.74842 18.2694 7.02589 16.859 9.68746C16.4982 10.0428 16.4654 10.6133 16.4354 11.1365C16.4053 11.6598 16.3779 12.1357 16.028 12.302L12.8405 12.3019ZM145.008 11.7574V22.2C145.008 23.7461 146.261 24.9994 147.807 24.9994H170.202C171.748 24.9994 173.002 23.7461 173.002 22.2V11.7574C173.002 10.2113 171.748 8.95801 170.202 8.95801H147.807C146.261 8.95801 145.008 10.2113 145.008 11.7574ZM147.118 23.0863L147.122 23.0899L147.125 23.0935C147.48 23.4359 147.943 23.5965 148.483 23.5965C149.032 23.5965 149.498 23.4371 149.845 23.0899L149.847 23.0881L149.849 23.0863C150.191 22.7312 150.352 22.2688 150.352 21.7282C150.352 21.1794 150.192 20.7136 149.845 20.3664C149.498 20.0193 149.032 19.8598 148.483 19.8598C147.943 19.8598 147.48 20.0205 147.125 20.3629L147.123 20.3646L147.122 20.3664C146.774 20.7136 146.615 21.1794 146.615 21.7282C146.615 22.2688 146.776 22.7312 147.118 23.0863ZM154.016 20.7405V23.4393H162.282V20.7405H159.766V14.2296H154.409V16.9126H157.004V20.7405H154.016ZM157.005 13.0217L157.008 13.0236L157.01 13.0254C157.334 13.2979 157.749 13.4213 158.228 13.4213C158.705 13.4213 159.117 13.2987 159.432 13.0236C159.763 12.7445 159.923 12.3642 159.923 11.9146C159.923 11.4651 159.763 11.0847 159.432 10.8057C159.117 10.5306 158.705 10.408 158.228 10.408C157.749 10.408 157.334 10.5314 157.01 10.8039L157.008 10.8057L157.005 10.8075C156.685 11.088 156.532 11.4681 156.532 11.9146C156.532 12.3612 156.685 12.7412 157.005 13.0217ZM165.217 23.1405L165.219 23.1414L165.221 23.1424C165.833 23.4485 166.543 23.5965 167.343 23.5965C168.153 23.5965 168.864 23.4488 169.468 23.1414L169.469 23.1405C170.079 22.8246 170.554 22.3859 170.886 21.8243C171.23 21.2512 171.398 20.5923 171.398 19.8567V17.8122C171.398 17.0777 171.23 16.4236 170.886 15.8603C170.554 15.2889 170.079 14.8495 169.469 14.5437C168.865 14.2254 168.153 14.0724 167.343 14.0724C166.543 14.0724 165.832 14.2259 165.219 14.5432C164.608 14.8491 164.127 15.2886 163.785 15.8596L163.784 15.861C163.451 16.4244 163.289 17.0781 163.289 17.8122V19.8567C163.289 20.5909 163.451 21.2488 163.783 21.8215L163.784 21.8243L163.786 21.8272C164.129 22.387 164.608 22.8249 165.217 23.1405ZM168.479 19.8567C168.479 20.2558 168.373 20.529 168.197 20.7145C168.025 20.8856 167.756 20.9922 167.343 20.9922C166.946 20.9922 166.673 20.8877 166.488 20.7124C166.312 20.5269 166.208 20.2542 166.208 19.8567V17.8122C166.208 17.3999 166.314 17.1309 166.485 16.9585C166.671 16.782 166.944 16.6767 167.343 16.6767C167.757 16.6767 168.027 16.7842 168.199 16.9564C168.371 17.1287 168.479 17.3982 168.479 17.8122V19.8567Z" fill="#16222A"/>
</svg>
