<svg width="349" height="317" viewBox="0 0 349 317" fill="none" xmlns="http://www.w3.org/2000/svg">
<path d="M49 170.383H249.472V195.932H49V170.383Z" fill="#0094FF" fill-opacity="0.5"/>
<path d="M299 183.157L249.472 216.347V149.968L299 183.157Z" fill="#0094FF" fill-opacity="0.5"/>
<path d="M101.57 46.5184C115.133 49.6557 112.24 33.0541 120.422 27.6121C137.651 7.11238 170.982 -1.57423 198.057 8.23082C225.966 17.4657 243.538 44.9969 238.839 70.5793C254.267 65.8248 275.591 65.4835 285.673 78.7313C302.482 94.8198 290.539 122.894 267.801 129.056C258.273 131.683 248.264 129.413 238.467 130.057C190.79 130.014 143.101 130.144 95.4328 129.99C61.5865 127.719 42.718 89.0667 60.8184 65.0126C66.86 56.3767 77.7287 51.7127 88.0376 48.0973C92.5483 47.4739 97.059 46.8506 101.57 46.2272M101.57 67.176C88.3865 66.4111 76.4972 76.9179 78.6972 88.5642C79.2431 101.22 93.5574 112.629 108.195 109.108C158.533 109.089 208.872 109.145 259.209 109.08C275.502 108.085 269.974 83.869 254.372 88.1366C241.466 88.1366 228.56 88.1366 215.654 88.1366C214.776 71.4247 219.424 52.2587 206.211 38.209C188.332 19.4877 148.188 21.8703 136.078 44.7254C129.881 50.8285 134.951 64.321 128.941 67.1764C119.817 67.1764 110.693 67.176 101.57 67.176Z" fill="#0094FF"/>
<path fill-rule="evenodd" clip-rule="evenodd" d="M101.624 46.5312C109.857 48.4094 112 42.9826 114.272 37.2292C115.726 33.5479 117.234 29.7326 120.422 27.6121C137.651 7.11238 170.982 -1.57423 198.057 8.23082C224.3 16.9144 241.403 41.7754 239.445 65.9817C239.32 67.5184 239.12 69.0522 238.839 70.5793C240.472 70.0763 242.169 69.6229 243.913 69.2296C258.652 65.9049 276.657 66.885 285.673 78.7313C302.482 94.8198 290.539 122.894 267.801 129.056C261.83 130.702 255.67 130.426 249.493 130.148C245.812 129.983 242.125 129.817 238.467 130.057C220.367 130.041 202.265 130.049 184.163 130.058C154.584 130.072 125.005 130.086 95.4328 129.99C61.5865 127.719 42.718 89.0667 60.8184 65.0126C66.86 56.3767 77.7287 51.7127 88.0376 48.0973L101.57 46.2272L101.57 46.5184C101.588 46.5226 101.606 46.527 101.624 46.5312ZM101.602 46.4104L101.57 46.2272L100.817 42.0834L86.7483 44.0277L86.2442 44.2045C75.9374 47.8192 63.7038 52.8854 56.756 62.7671C46.6624 76.231 47.0623 93.4441 54.2613 107.393C61.483 121.386 75.9782 132.893 95.0635 134.174L95.2386 134.186L95.4143 134.186C124.993 134.281 154.594 134.268 184.183 134.254C202.283 134.245 220.378 134.237 238.461 134.253L238.645 134.253L238.828 134.241C242.156 134.022 245.411 134.168 248.995 134.329C250.299 134.387 251.646 134.448 253.056 134.493C258.097 134.656 263.659 134.596 269.237 133.06C282.337 129.506 292.006 119.779 296.129 108.938C300.234 98.1445 299.084 85.536 289.471 76.1425C283.456 68.4306 274.272 64.8204 264.886 63.7447C258.031 62.9592 250.896 63.4919 244.337 64.8195C245.652 39.3239 227.567 13.5418 199.83 4.33097C170.846 -6.13092 135.504 3.01973 116.923 24.6856C114.22 26.6866 112.613 29.358 111.497 31.6818C110.885 32.9555 110.361 34.2599 109.893 35.4431C109.837 35.5848 109.782 35.7244 109.727 35.8621C109.311 36.9158 108.938 37.8588 108.537 38.7507C107.583 40.8752 106.801 41.8881 106.13 42.3446C105.821 42.555 105.104 42.9957 102.801 42.463L101.602 46.4104Z" fill="#0094FF"/>
<path d="M0 315.8V258C0 253.6 2.4 250 7.2 247.2C12.1333 244.4 18.2667 243 25.6 243C28.9333 243 32.3333 243.267 35.8 243.8C44.3333 245.4 50.0667 249.067 53 254.8L74.8 296.4V243.8H104.2V303.4C104.2 307.133 101.8 310.267 97 312.8C92.2 315.333 86.2 316.667 79 316.8C65.1333 317.067 56 313 51.6 304.6L29.6 263.2V315.8H0Z" fill="white"/>
<path d="M121.647 243.8H182.247C204.247 243.8 215.18 249 215.047 259.4L214.847 275.8C214.847 278.333 213.047 280.867 209.447 283.4C204.114 287.133 196.114 289 185.447 289H159.647C154.98 289.267 152.647 290.667 152.647 293.2V300.2H215.047V315.8H121.647V288.6C121.647 283.933 124.314 280.2 129.647 277.4C134.98 274.6 141.847 273.2 150.247 273.2L176.847 273C181.647 273 184.047 271.667 184.047 269V263.6C184.047 261.067 181.714 259.6 177.047 259.2H121.647V243.8Z" fill="white"/>
<path d="M220.931 315.8L268.131 279L223.331 243.8H260.131L284.131 264L309.731 243.8H346.531L301.731 279L348.931 315.8H312.131L283.931 293.6L257.731 315.8H220.931Z" fill="white"/>
</svg>
