<svg width="181" height="28" viewBox="0 0 181 28" fill="none" xmlns="http://www.w3.org/2000/svg">
<path d="M175.823 17.1251C175.823 17.5571 175.709 17.8529 175.518 18.0538C175.331 18.2389 175.04 18.3543 174.594 18.3543C174.164 18.3543 173.868 18.2412 173.668 18.0514C173.478 17.8506 173.365 17.5555 173.365 17.1251V14.912C173.365 14.4656 173.48 14.1745 173.665 13.9879C173.866 13.7968 174.162 13.6828 174.594 13.6828C175.042 13.6828 175.334 13.7992 175.52 13.9856C175.707 14.1721 175.823 14.4638 175.823 14.912V17.1251Z" fill="white"/>
<path fill-rule="evenodd" clip-rule="evenodd" d="M150.416 8.3577C150.416 6.68411 151.773 5.32739 153.446 5.32739H177.689C179.362 5.32739 180.719 6.68411 180.719 8.3577V19.6618C180.719 21.3354 179.362 22.6921 177.689 22.6921H153.446C151.773 22.6921 150.416 21.3354 150.416 19.6618V8.3577ZM152.7 20.6211L152.704 20.6251L152.708 20.6289C153.093 20.9996 153.593 21.1735 154.178 21.1735C154.772 21.1735 155.276 21.0009 155.652 20.6251L155.654 20.6231L155.656 20.6211C156.027 20.2367 156.201 19.7362 156.201 19.151C156.201 18.5569 156.028 18.0528 155.652 17.6769C155.276 17.3011 154.772 17.1285 154.178 17.1285C153.593 17.1285 153.093 17.3024 152.708 17.6731L152.706 17.675L152.704 17.6769C152.328 18.0528 152.156 18.5569 152.156 19.151C152.156 19.7362 152.33 20.2367 152.7 20.6211ZM160.168 18.0819V21.0032H169.115V18.0819H166.392V11.0339H160.593V13.9382H163.402V18.0819H160.168ZM163.403 9.72635L163.406 9.72836L163.408 9.73033C163.759 10.0253 164.209 10.1588 164.727 10.1588C165.243 10.1588 165.689 10.0261 166.03 9.72837C166.389 9.42628 166.562 9.01458 166.562 8.52792C166.562 8.04125 166.389 7.62955 166.03 7.32746C165.689 7.02971 165.243 6.897 164.727 6.897C164.209 6.897 163.759 7.03054 163.408 7.3255L163.406 7.32747L163.403 7.32948C163.056 7.63314 162.891 8.0445 162.891 8.52792C162.891 9.01133 163.056 9.42269 163.403 9.72635ZM172.292 20.6798L172.294 20.6808L172.296 20.6818C172.959 21.0133 173.728 21.1735 174.594 21.1735C175.47 21.1735 176.24 21.0136 176.894 20.6808L176.896 20.6798C177.555 20.3379 178.069 19.863 178.429 19.2551C178.801 18.6347 178.983 17.9214 178.983 17.1251V14.912C178.983 14.1169 178.802 13.4089 178.429 12.7991C178.07 12.1805 177.555 11.7049 176.895 11.3738C176.241 11.0293 175.47 10.8636 174.594 10.8636C173.727 10.8636 172.958 11.0298 172.294 11.3733C171.633 11.7045 171.113 12.1802 170.742 12.7983L170.741 12.7999C170.38 13.4097 170.205 14.1174 170.205 14.912V17.1251C170.205 17.9199 170.38 18.6321 170.74 19.252L170.742 19.2551L170.743 19.2582C171.114 19.8642 171.634 20.3382 172.292 20.6798Z" fill="white"/>
<path d="M40.1123 24.964V7.44878C40.1123 6.11545 40.8396 5.02454 42.2941 4.17605C43.7891 3.32756 45.6477 2.90332 47.8699 2.90332C48.88 2.90332 49.9103 2.98413 50.9608 3.14575C53.5467 3.63059 55.284 4.74171 56.1729 6.47908L62.779 19.0852V3.14575H71.6881V21.2064C71.6881 22.3377 70.9608 23.2872 69.5063 24.0549C68.0517 24.8225 66.2336 25.2266 64.0517 25.267C59.8497 25.3478 57.082 24.1155 55.7487 21.57L49.082 9.02454V24.964H40.1123Z" fill="white"/>
<path d="M76.975 3.14575H95.3387C102.005 3.14575 105.319 4.72151 105.278 7.87302L105.217 12.8427C105.217 13.6104 104.672 14.3781 103.581 15.1458C101.965 16.2771 99.5407 16.8427 96.3084 16.8427H88.4902C87.0761 16.9235 86.369 17.3478 86.369 18.1155V20.2367H105.278V24.964H76.975V16.7215C76.975 15.3074 77.7831 14.1761 79.3993 13.3276C81.0154 12.4791 83.0963 12.0548 85.6417 12.0548L93.7023 11.9942C95.1569 11.9942 95.8842 11.5902 95.8842 10.7821V9.14575C95.8842 8.37808 95.1771 7.93363 93.7629 7.81242H76.975V3.14575Z" fill="white"/>
<path d="M107.061 24.964L121.364 13.8124L107.789 3.14575H118.94L126.213 9.26697L133.97 3.14575H145.122L131.546 13.8124L145.849 24.964H134.698L126.152 18.2367L118.213 24.964H107.061Z" fill="white"/>
<path d="M0.71875 21.9575H25.9904V25.1783H0.71875V21.9575Z" fill="#0094FF" fill-opacity="0.5"/>
<path d="M32.2339 23.5679L25.9904 27.7518V19.384L32.2339 23.5679Z" fill="#0094FF" fill-opacity="0.5"/>
<path d="M7.34577 6.34314C9.05554 6.73865 8.69078 4.64583 9.72231 3.95981C11.8941 1.3756 16.0958 0.280555 19.509 1.51659C23.0272 2.68074 25.2424 6.15134 24.6501 9.37629C26.5948 8.77693 29.2829 8.73391 30.5539 10.4039C32.6729 12.4321 31.1673 15.9711 28.3009 16.7479C27.0998 17.0791 25.8381 16.7929 24.6031 16.8741C18.5929 16.8686 12.5812 16.8851 6.5721 16.8657C2.30542 16.5793 -0.0731676 11.7068 2.20859 8.67455C2.97019 7.58589 4.34031 6.99795 5.63986 6.54219C6.20848 6.46361 6.7771 6.38503 7.34573 6.30644M7.34573 8.94726C5.68384 8.85084 4.18506 10.1753 4.46241 11.6435C4.53121 13.2389 6.33569 14.677 8.18095 14.2332C14.5266 14.2308 20.8723 14.238 27.2179 14.2297C29.2718 14.1042 28.5749 11.0516 26.6081 11.5896C24.9812 11.5896 23.3542 11.5896 21.7273 11.5896C21.6166 9.48286 22.2026 7.06678 20.5369 5.29567C18.2831 2.93563 13.2225 3.23599 11.6958 6.11712C10.9147 6.88648 11.5538 8.58735 10.7962 8.94731C9.64602 8.94731 8.49587 8.94726 7.34573 8.94726Z" fill="#0094FF"/>
<path fill-rule="evenodd" clip-rule="evenodd" d="M7.35259 6.34476C8.39041 6.58153 8.6606 5.89742 8.94705 5.17215C9.13033 4.70808 9.32036 4.22712 9.72231 3.95981C11.8941 1.3756 16.0958 0.280555 19.509 1.51659C22.8172 2.61125 24.9732 5.74525 24.7263 8.79671C24.7107 8.99043 24.6854 9.18378 24.6501 9.37629C24.8558 9.31288 25.0698 9.25572 25.2896 9.20614C27.1477 8.78703 29.4174 8.91059 30.5539 10.4039C32.6729 12.4321 31.1673 15.9711 28.3009 16.7479C27.5483 16.9555 26.7718 16.9206 25.993 16.8856C25.529 16.8647 25.0642 16.8438 24.6031 16.8741C22.3214 16.872 20.0394 16.8731 17.7576 16.8742C14.0287 16.876 10.2999 16.8777 6.5721 16.8657C2.30542 16.5793 -0.0731676 11.7068 2.20859 8.67455C2.97019 7.58589 4.34031 6.99795 5.63986 6.54219L7.34573 6.30644L7.34577 6.34314C7.34807 6.34368 7.35029 6.34423 7.35259 6.34476ZM7.34982 6.32953L7.34573 6.30644L7.25084 5.78408L5.47733 6.02917L5.41378 6.05146C4.1145 6.50713 2.57232 7.14578 1.69648 8.39148C0.424065 10.0888 0.474477 12.2586 1.38199 14.0171C2.29237 15.781 4.11964 17.2316 6.52554 17.3931L6.54763 17.3945L6.56978 17.3946C10.2985 17.4066 14.03 17.4049 17.7601 17.4031C20.0417 17.402 22.3228 17.401 24.6024 17.403L24.6255 17.4031L24.6486 17.4016C25.0682 17.3739 25.4785 17.3923 25.9303 17.4126C26.0946 17.42 26.2645 17.4276 26.4423 17.4333C27.0777 17.4538 27.7789 17.4463 28.482 17.2527C30.1334 16.8046 31.3523 15.5785 31.8721 14.2118C32.3895 12.8512 32.2446 11.2617 31.0327 10.0776C30.2745 9.10542 29.1168 8.65032 27.9335 8.51471C27.0694 8.41569 26.1699 8.48284 25.343 8.6502C25.5089 5.43621 23.229 2.18609 19.7325 1.02497C16.0787 -0.293865 11.6235 0.859674 9.28117 3.59089C8.9404 3.84313 8.73785 4.1799 8.59718 4.47284C8.52008 4.63339 8.45398 4.79784 8.39493 4.94699C8.38787 4.96485 8.38091 4.98245 8.37405 4.99981C8.32158 5.13264 8.27461 5.25152 8.22408 5.36395C8.10371 5.63177 8.00518 5.75945 7.92061 5.817C7.88162 5.84353 7.79126 5.89907 7.50096 5.83192L7.34982 6.32953Z" fill="#0094FF"/>
</svg>
