<svg width="253" height="30" viewBox="0 0 253 30" fill="none" xmlns="http://www.w3.org/2000/svg">
<path d="M175.104 17.6461C175.104 18.0781 174.99 18.3739 174.799 18.5748C174.613 18.7599 174.322 18.8753 173.875 18.8753C173.445 18.8753 173.15 18.7622 172.949 18.5724C172.759 18.3716 172.646 18.0765 172.646 17.6461V15.433C172.646 14.9866 172.761 14.6955 172.947 14.5089C173.147 14.3178 173.443 14.2038 173.875 14.2038C174.323 14.2038 174.615 14.3202 174.802 14.5066C174.988 14.6931 175.104 14.9848 175.104 15.433V17.6461Z" fill="white"/>
<path fill-rule="evenodd" clip-rule="evenodd" d="M149.697 8.8787C149.697 7.2051 151.054 5.84839 152.728 5.84839H176.97C178.644 5.84839 180 7.2051 180 8.8787V20.1828C180 21.8564 178.644 23.2131 176.97 23.2131H152.728C151.054 23.2131 149.697 21.8564 149.697 20.1828V8.8787ZM151.982 21.1421L151.985 21.1461L151.989 21.1499C152.374 21.5206 152.874 21.6945 153.46 21.6945C154.054 21.6945 154.558 21.5219 154.934 21.1461L154.936 21.1441L154.937 21.1421C155.308 20.7577 155.482 20.2572 155.482 19.672C155.482 19.0779 155.309 18.5738 154.934 18.1979C154.558 17.8221 154.054 17.6495 153.46 17.6495C152.874 17.6495 152.374 17.8234 151.989 18.1941L151.987 18.196L151.985 18.1979C151.61 18.5738 151.437 19.0779 151.437 19.672C151.437 20.2572 151.611 20.7577 151.982 21.1421ZM159.449 18.6029V21.5242H168.397V18.6029H165.673V11.5549H159.874V14.4592H162.683V18.6029H159.449ZM162.685 10.2473L162.687 10.2494L162.689 10.2513C163.04 10.5463 163.49 10.6798 164.008 10.6798C164.524 10.6798 164.97 10.5471 165.312 10.2494C165.67 9.94727 165.843 9.53558 165.843 9.04891C165.843 8.56224 165.67 8.15055 165.312 7.84845C164.97 7.5507 164.524 7.41799 164.008 7.41799C163.49 7.41799 163.04 7.55154 162.689 7.8465L162.687 7.84847L162.685 7.85048C162.338 8.15414 162.173 8.5655 162.173 9.04891C162.173 9.53232 162.338 9.94368 162.685 10.2473ZM171.574 21.2008L171.576 21.2018L171.578 21.2028C172.24 21.5343 173.009 21.6945 173.875 21.6945C174.751 21.6945 175.522 21.5346 176.175 21.2018L176.177 21.2008C176.836 20.8589 177.351 20.384 177.711 19.7761C178.083 19.1557 178.264 18.4424 178.264 17.6461V15.433C178.264 14.6379 178.083 13.9299 177.711 13.3201C177.351 12.7015 176.837 12.2259 176.176 11.8948C175.522 11.5503 174.752 11.3846 173.875 11.3846C173.009 11.3846 172.239 11.5508 171.576 11.8943C170.914 12.2255 170.394 12.7012 170.023 13.3193L170.022 13.3209C169.661 13.9307 169.486 14.6384 169.486 15.433V17.6461C169.486 18.4409 169.661 19.1531 170.021 19.773L170.023 19.7761L170.025 19.7792C170.396 20.3852 170.915 20.8592 171.574 21.2008Z" fill="white"/>
<path d="M39.3936 25.485V7.96978C39.3936 6.63644 40.1208 5.54553 41.5754 4.69705C43.0703 3.84856 44.9289 3.42432 47.1511 3.42432C48.1612 3.42432 49.1915 3.50512 50.2421 3.66674C52.8279 4.15159 54.5653 5.2627 55.4542 7.00008L62.0602 19.6062V3.66674H70.9694V21.7274C70.9694 22.8587 70.2421 23.8082 68.7875 24.5759C67.333 25.3435 65.5148 25.7476 63.333 25.788C59.131 25.8688 56.3633 24.6365 55.0299 22.091L48.3633 9.54554V25.485H39.3936Z" fill="white"/>
<path d="M76.2563 3.66674H94.62C101.287 3.66674 104.6 5.2425 104.559 8.39402L104.499 13.3637C104.499 14.1314 103.953 14.8991 102.862 15.6668C101.246 16.7981 98.822 17.3637 95.5896 17.3637H87.7715C86.3573 17.4445 85.6502 17.8688 85.6502 18.6365V20.7577H104.559V25.485H76.2563V17.2425C76.2563 15.8284 77.0644 14.6971 78.6805 13.8486C80.2967 13.0001 82.3775 12.5758 84.923 12.5758L92.9836 12.5152C94.4381 12.5152 95.1654 12.1112 95.1654 11.3031V9.66675C95.1654 8.89907 94.4583 8.45463 93.0442 8.33341H76.2563V3.66674Z" fill="white"/>
<path d="M106.342 25.485L120.646 14.3334L107.07 3.66674H118.221L125.494 9.78796L133.252 3.66674H144.403L130.827 14.3334L145.13 25.485H133.979L125.433 18.7577L117.494 25.485H106.342Z" fill="white"/>
<path d="M0 22.4785H25.2716V25.6993H0V22.4785Z" fill="#0094FF" fill-opacity="0.5"/>
<path d="M31.5152 24.0889L25.2716 28.2728V19.905L31.5152 24.0889Z" fill="#0094FF" fill-opacity="0.5"/>
<path d="M6.62702 6.86414C8.33679 7.25964 7.97203 5.16682 9.00356 4.4808C11.1754 1.89659 15.3771 0.801552 18.7902 2.03758C22.3085 3.20174 24.5236 6.67234 23.9313 9.89728C25.8761 9.29793 28.5642 9.2549 29.8352 10.9249C31.9541 12.9531 30.4486 16.4921 27.5822 17.2689C26.3811 17.6001 25.1194 17.3139 23.8843 17.3951C17.8742 17.3896 11.8625 17.406 5.85335 17.3867C1.58667 17.1003 -0.791918 12.2278 1.48984 9.19554C2.25144 8.10689 3.62156 7.51895 4.92111 7.06319C5.48973 6.9846 6.05835 6.90603 6.62698 6.82744M6.62698 9.46826C4.96509 9.37183 3.46631 10.6963 3.74366 12.1645C3.81246 13.7599 5.61694 15.198 7.4622 14.7542C13.8078 14.7518 20.1536 14.759 26.4991 14.7507C28.553 14.6252 27.8561 11.5726 25.8894 12.1106C24.2624 12.1106 22.6355 12.1106 21.0085 12.1106C20.8979 10.0039 21.4838 7.58777 19.8181 5.81666C17.5643 3.45663 12.5037 3.75699 10.9771 6.63812C10.1959 7.40748 10.835 9.10835 10.0774 9.4683C8.92727 9.4683 7.77712 9.46826 6.62698 9.46826Z" fill="#0094FF"/>
<path fill-rule="evenodd" clip-rule="evenodd" d="M6.63384 6.86575C7.67166 7.10253 7.94185 6.41842 8.2283 5.69314C8.41158 5.22907 8.60161 4.74812 9.00356 4.4808C11.1754 1.89659 15.3771 0.801552 18.7902 2.03758C22.0985 3.13224 24.2544 6.26625 24.0076 9.31771C23.9919 9.51142 23.9667 9.70478 23.9313 9.89728C24.1371 9.83387 24.351 9.77672 24.5709 9.72713C26.4289 9.30802 28.6986 9.43158 29.8352 10.9249C31.9541 12.9531 30.4486 16.4921 27.5822 17.2689C26.8295 17.4765 26.053 17.4416 25.2743 17.4066C24.8103 17.3857 24.3455 17.3648 23.8843 17.3951C21.6027 17.393 19.3207 17.3941 17.0388 17.3952C13.31 17.397 9.58119 17.3987 5.85335 17.3867C1.58667 17.1003 -0.791918 12.2278 1.48984 9.19554C2.25144 8.10689 3.62156 7.51895 4.92111 7.06319L6.62698 6.82744L6.62702 6.86414C6.62932 6.86467 6.63154 6.86523 6.63384 6.86575ZM6.63107 6.85053L6.62698 6.82744L6.53209 6.30507L4.75858 6.55017L4.69503 6.57246C3.39575 7.02812 1.85357 7.66677 0.977728 8.91247C-0.294685 10.6097 -0.244273 12.7796 0.663243 14.5381C1.57362 16.302 3.40089 17.7526 5.80679 17.9141L5.82888 17.9155L5.85103 17.9156C9.57973 17.9276 13.3113 17.9259 17.0413 17.9241C19.323 17.923 21.6041 17.922 23.8836 17.924L23.9067 17.9241L23.9298 17.9225C24.3494 17.8949 24.7597 17.9133 25.2115 17.9336C25.3759 17.941 25.5457 17.9486 25.7235 17.9543C26.359 17.9748 27.0601 17.9673 27.7632 17.7737C29.4146 17.3256 30.6335 16.0995 31.1533 14.7328C31.6708 13.3722 31.5258 11.7827 30.3139 10.5986C29.5558 9.62641 28.398 9.17131 27.2147 9.03571C26.3507 8.93669 25.4511 9.00384 24.6243 9.17119C24.7901 5.9572 22.5103 2.70709 19.0138 1.54597C15.3599 0.227131 10.9048 1.38067 8.56242 4.11189C8.22165 4.36413 8.0191 4.7009 7.87843 4.99383C7.80133 5.15439 7.73523 5.31884 7.67618 5.46799C7.66912 5.48585 7.66216 5.50345 7.6553 5.52081C7.60283 5.65363 7.55586 5.77251 7.50533 5.88494C7.38496 6.15276 7.28643 6.28044 7.20186 6.33799C7.16287 6.36452 7.07251 6.42007 6.78221 6.35292L6.63107 6.85053Z" fill="#0094FF"/>
<path d="M193.955 0.920454V29.625H193.026V0.920454H193.955ZM206.257 24V6.54545H211.925C212.982 6.54545 213.874 6.73295 214.601 7.10795C215.328 7.48295 215.879 8.00852 216.254 8.68466C216.635 9.3608 216.825 10.1477 216.825 11.0455C216.825 11.75 216.712 12.375 216.484 12.9205C216.257 13.4659 215.939 13.9176 215.53 14.2756C215.126 14.6278 214.652 14.8722 214.107 15.0085V15.1108C214.709 15.1562 215.268 15.3665 215.786 15.7415C216.303 16.1108 216.717 16.6136 217.03 17.25C217.348 17.8864 217.507 18.6278 217.507 19.4744C217.507 20.3665 217.314 21.1534 216.928 21.8352C216.547 22.5114 215.976 23.0426 215.214 23.429C214.453 23.8097 213.51 24 212.385 24H206.257ZM207.322 23.0114H212.385C213.697 23.0114 214.706 22.6818 215.411 22.0227C216.121 21.3636 216.476 20.5142 216.476 19.4744C216.476 18.7415 216.303 18.0852 215.956 17.5057C215.615 16.9261 215.141 16.4687 214.533 16.1335C213.925 15.7926 213.22 15.6222 212.419 15.6222H207.322V23.0114ZM207.322 14.6506H212.291C213.036 14.6506 213.666 14.4886 214.183 14.1648C214.706 13.8409 215.104 13.4062 215.376 12.8608C215.655 12.3153 215.794 11.7102 215.794 11.0455C215.794 9.96591 215.459 9.1108 214.788 8.48011C214.118 7.84943 213.163 7.53409 211.925 7.53409H207.322V14.6506ZM222.376 6.54545V24H221.336V6.54545H222.376ZM231.546 24.2727C230.467 24.2727 229.506 23.983 228.665 23.4034C227.825 22.8182 227.163 22.0142 226.68 20.9915C226.197 19.9687 225.955 18.804 225.955 17.4972C225.955 16.1847 226.197 15.0199 226.68 14.0028C227.163 12.9801 227.825 12.1761 228.665 11.5909C229.506 11.0057 230.467 10.7131 231.546 10.7131C232.626 10.7131 233.586 11.0057 234.427 11.5909C235.268 12.1761 235.93 12.9801 236.413 14.0028C236.896 15.0256 237.137 16.1903 237.137 17.4972C237.137 18.804 236.896 19.9687 236.413 20.9915C235.93 22.0142 235.268 22.8182 234.427 23.4034C233.586 23.983 232.626 24.2727 231.546 24.2727ZM231.546 23.3097C232.461 23.3097 233.259 23.0511 233.941 22.5341C234.629 22.017 235.16 21.3182 235.535 20.4375C235.915 19.5568 236.106 18.5767 236.106 17.4972C236.106 16.4176 235.915 15.4403 235.535 14.5653C235.154 13.6847 234.623 12.9858 233.941 12.4688C233.259 11.946 232.461 11.6847 231.546 11.6847C230.631 11.6847 229.833 11.946 229.151 12.4688C228.469 12.9858 227.938 13.6847 227.558 14.5653C227.177 15.4403 226.987 16.4176 226.987 17.4972C226.987 18.5767 227.174 19.5568 227.549 20.4375C227.93 21.3182 228.461 22.017 229.143 22.5341C229.83 23.0511 230.631 23.3097 231.546 23.3097ZM245.44 29.1818C244.628 29.1818 243.898 29.0739 243.25 28.858C242.602 28.6477 242.051 28.3466 241.597 27.9545C241.148 27.5625 240.804 27.0966 240.565 26.5568L241.435 26.0455C241.628 26.4659 241.903 26.8409 242.261 27.1705C242.619 27.5 243.063 27.7585 243.591 27.946C244.125 28.1335 244.741 28.2273 245.44 28.2273C246.702 28.2273 247.699 27.9006 248.432 27.2472C249.17 26.5994 249.54 25.6051 249.54 24.2642V21.0085H249.438C249.239 21.5767 248.943 22.0824 248.551 22.5256C248.165 22.9631 247.69 23.3068 247.128 23.5568C246.565 23.8068 245.926 23.9318 245.21 23.9318C244.176 23.9318 243.267 23.6648 242.483 23.1307C241.699 22.5966 241.088 21.8466 240.651 20.8807C240.213 19.9091 239.994 18.767 239.994 17.4545C239.994 16.142 240.207 14.9801 240.634 13.9688C241.065 12.9517 241.673 12.1562 242.457 11.5824C243.241 11.0028 244.162 10.7131 245.219 10.7131C245.974 10.7131 246.628 10.858 247.179 11.1477C247.736 11.4318 248.202 11.8097 248.577 12.2812C248.952 12.7528 249.241 13.2699 249.446 13.8324H249.565V10.9091H250.571V24.3068C250.571 25.3977 250.355 26.304 249.923 27.0256C249.497 27.7472 248.898 28.2869 248.125 28.6449C247.358 29.0028 246.463 29.1818 245.44 29.1818ZM245.304 22.9688C246.179 22.9688 246.932 22.7472 247.562 22.304C248.199 21.8551 248.688 21.2187 249.028 20.3949C249.375 19.5653 249.548 18.5824 249.548 17.446C249.548 16.3437 249.381 15.358 249.045 14.4886C248.71 13.6193 248.224 12.9347 247.588 12.4347C246.952 11.9347 246.19 11.6847 245.304 11.6847C244.401 11.6847 243.631 11.9403 242.994 12.4517C242.358 12.9574 241.869 13.6449 241.528 14.5142C241.193 15.3835 241.026 16.3608 241.026 17.446C241.026 18.5369 241.196 19.4972 241.537 20.3267C241.878 21.1506 242.366 21.7983 243.003 22.2699C243.639 22.7358 244.406 22.9688 245.304 22.9688Z" fill="white"/>
</svg>
